<?xml version="1.0" encoding="UTF-8" standalone="no"?>
<!-- Created with Inkscape (http://www.inkscape.org/) -->

<svg
   xmlns:dc="http://purl.org/dc/elements/1.1/"
   xmlns:cc="http://creativecommons.org/ns#"
   xmlns:rdf="http://www.w3.org/1999/02/22-rdf-syntax-ns#"
   xmlns:svg="http://www.w3.org/2000/svg"
   xmlns="http://www.w3.org/2000/svg"
   xmlns:xlink="http://www.w3.org/1999/xlink"
   xmlns:sodipodi="http://sodipodi.sourceforge.net/DTD/sodipodi-0.dtd"
   xmlns:inkscape="http://www.inkscape.org/namespaces/inkscape"
   width="131.3038mm"
   height="50mm"
   viewBox="0 0 131.3038 50"
   version="1.1"
   id="svg8"
   inkscape:version="0.92.2 5c3e80d, 2017-08-06"
   sodipodi:docname="cardboard-schema.svg"
   inkscape:export-filename="/home/bertof/Documenti/Tesi di laurea/immagini/cardboard-schema.png"
   inkscape:export-xdpi="192"
   inkscape:export-ydpi="192">
  <defs
     id="defs2">
    <path
       d="m 185.563,18.248 c 0.756,-1.747 1.196,-3.572 1.196,-5.261 0,-1.688 -0.44,-3.004 -1.196,-3.877 z"
       id="SVGID_1_"
       inkscape:connector-curvature="0" />
    <clipPath
       id="SVGID_2_-3">
      <use
         id="use39-6"
         overflow="visible"
         xlink:href="#SVGID_1_"
         style="overflow:visible"
         x="0"
         y="0"
         width="100%"
         height="100%" />
    </clipPath>
    <clipPath
       id="clipPath181">
      <use
         id="use179"
         overflow="visible"
         xlink:href="#SVGID_1_"
         style="overflow:visible"
         x="0"
         y="0"
         width="100%"
         height="100%" />
    </clipPath>
    <clipPath
       id="clipPath185">
      <use
         id="use183"
         overflow="visible"
         xlink:href="#SVGID_1_"
         style="overflow:visible"
         x="0"
         y="0"
         width="100%"
         height="100%" />
    </clipPath>
    <clipPath
       id="clipPath189">
      <use
         id="use187"
         overflow="visible"
         xlink:href="#SVGID_1_"
         style="overflow:visible"
         x="0"
         y="0"
         width="100%"
         height="100%" />
    </clipPath>
    <clipPath
       id="clipPath193">
      <use
         id="use191"
         overflow="visible"
         xlink:href="#SVGID_1_"
         style="overflow:visible"
         x="0"
         y="0"
         width="100%"
         height="100%" />
    </clipPath>
    <clipPath
       id="clipPath197">
      <use
         id="use195"
         overflow="visible"
         xlink:href="#SVGID_1_"
         style="overflow:visible"
         x="0"
         y="0"
         width="100%"
         height="100%" />
    </clipPath>
    <clipPath
       id="clipPath201">
      <use
         id="use199"
         overflow="visible"
         xlink:href="#SVGID_1_"
         style="overflow:visible"
         x="0"
         y="0"
         width="100%"
         height="100%" />
    </clipPath>
    <clipPath
       id="clipPath205">
      <use
         id="use203"
         overflow="visible"
         xlink:href="#SVGID_1_"
         style="overflow:visible"
         x="0"
         y="0"
         width="100%"
         height="100%" />
    </clipPath>
    <clipPath
       id="clipPath209">
      <use
         id="use207"
         overflow="visible"
         xlink:href="#SVGID_1_"
         style="overflow:visible"
         x="0"
         y="0"
         width="100%"
         height="100%" />
    </clipPath>
    <clipPath
       id="clipPath213">
      <use
         id="use211"
         overflow="visible"
         xlink:href="#SVGID_1_"
         style="overflow:visible"
         x="0"
         y="0"
         width="100%"
         height="100%" />
    </clipPath>
    <clipPath
       id="clipPath217">
      <use
         id="use215"
         overflow="visible"
         xlink:href="#SVGID_1_"
         style="overflow:visible"
         x="0"
         y="0"
         width="100%"
         height="100%" />
    </clipPath>
    <clipPath
       id="clipPath221">
      <use
         id="use219"
         overflow="visible"
         xlink:href="#SVGID_1_"
         style="overflow:visible"
         x="0"
         y="0"
         width="100%"
         height="100%" />
    </clipPath>
    <clipPath
       id="clipPath225">
      <use
         id="use223"
         overflow="visible"
         xlink:href="#SVGID_1_"
         style="overflow:visible"
         x="0"
         y="0"
         width="100%"
         height="100%" />
    </clipPath>
    <clipPath
       id="clipPath229">
      <use
         id="use227"
         overflow="visible"
         xlink:href="#SVGID_1_"
         style="overflow:visible"
         x="0"
         y="0"
         width="100%"
         height="100%" />
    </clipPath>
    <clipPath
       id="clipPath233">
      <use
         id="use231"
         overflow="visible"
         xlink:href="#SVGID_1_"
         style="overflow:visible"
         x="0"
         y="0"
         width="100%"
         height="100%" />
    </clipPath>
    <clipPath
       id="clipPath237">
      <use
         id="use235"
         overflow="visible"
         xlink:href="#SVGID_1_"
         style="overflow:visible"
         x="0"
         y="0"
         width="100%"
         height="100%" />
    </clipPath>
    <clipPath
       id="clipPath241">
      <use
         id="use239"
         overflow="visible"
         xlink:href="#SVGID_1_"
         style="overflow:visible"
         x="0"
         y="0"
         width="100%"
         height="100%" />
    </clipPath>
    <clipPath
       id="clipPath245">
      <use
         id="use243"
         overflow="visible"
         xlink:href="#SVGID_1_"
         style="overflow:visible"
         x="0"
         y="0"
         width="100%"
         height="100%" />
    </clipPath>
    <clipPath
       id="clipPath249">
      <use
         id="use247"
         overflow="visible"
         xlink:href="#SVGID_1_"
         style="overflow:visible"
         x="0"
         y="0"
         width="100%"
         height="100%" />
    </clipPath>
    <clipPath
       id="clipPath253">
      <use
         id="use251"
         overflow="visible"
         xlink:href="#SVGID_1_"
         style="overflow:visible"
         x="0"
         y="0"
         width="100%"
         height="100%" />
    </clipPath>
    <clipPath
       id="clipPath257">
      <use
         id="use255"
         overflow="visible"
         xlink:href="#SVGID_1_"
         style="overflow:visible"
         x="0"
         y="0"
         width="100%"
         height="100%" />
    </clipPath>
    <clipPath
       id="clipPath261">
      <use
         id="use259"
         overflow="visible"
         xlink:href="#SVGID_1_"
         style="overflow:visible"
         x="0"
         y="0"
         width="100%"
         height="100%" />
    </clipPath>
    <clipPath
       id="clipPath265">
      <use
         id="use263"
         overflow="visible"
         xlink:href="#SVGID_1_"
         style="overflow:visible"
         x="0"
         y="0"
         width="100%"
         height="100%" />
    </clipPath>
    <clipPath
       id="clipPath269">
      <use
         id="use267"
         overflow="visible"
         xlink:href="#SVGID_1_"
         style="overflow:visible"
         x="0"
         y="0"
         width="100%"
         height="100%" />
    </clipPath>
    <clipPath
       id="clipPath273">
      <use
         id="use271"
         overflow="visible"
         xlink:href="#SVGID_1_"
         style="overflow:visible"
         x="0"
         y="0"
         width="100%"
         height="100%" />
    </clipPath>
    <clipPath
       id="clipPath277">
      <use
         id="use275"
         overflow="visible"
         xlink:href="#SVGID_1_"
         style="overflow:visible"
         x="0"
         y="0"
         width="100%"
         height="100%" />
    </clipPath>
    <clipPath
       id="clipPath281">
      <use
         id="use279"
         overflow="visible"
         xlink:href="#SVGID_1_"
         style="overflow:visible"
         x="0"
         y="0"
         width="100%"
         height="100%" />
    </clipPath>
    <clipPath
       id="clipPath285">
      <use
         id="use283"
         overflow="visible"
         xlink:href="#SVGID_1_"
         style="overflow:visible"
         x="0"
         y="0"
         width="100%"
         height="100%" />
    </clipPath>
    <clipPath
       id="clipPath289">
      <use
         id="use287"
         overflow="visible"
         xlink:href="#SVGID_1_"
         style="overflow:visible"
         x="0"
         y="0"
         width="100%"
         height="100%" />
    </clipPath>
    <clipPath
       id="clipPath293">
      <use
         id="use291"
         overflow="visible"
         xlink:href="#SVGID_1_"
         style="overflow:visible"
         x="0"
         y="0"
         width="100%"
         height="100%" />
    </clipPath>
    <clipPath
       id="clipPath297">
      <use
         id="use295"
         overflow="visible"
         xlink:href="#SVGID_1_"
         style="overflow:visible"
         x="0"
         y="0"
         width="100%"
         height="100%" />
    </clipPath>
    <clipPath
       id="clipPath301">
      <use
         id="use299"
         overflow="visible"
         xlink:href="#SVGID_1_"
         style="overflow:visible"
         x="0"
         y="0"
         width="100%"
         height="100%" />
    </clipPath>
    <clipPath
       id="clipPath305">
      <use
         id="use303"
         overflow="visible"
         xlink:href="#SVGID_1_"
         style="overflow:visible"
         x="0"
         y="0"
         width="100%"
         height="100%" />
    </clipPath>
    <clipPath
       id="clipPath309">
      <use
         id="use307"
         overflow="visible"
         xlink:href="#SVGID_1_"
         style="overflow:visible"
         x="0"
         y="0"
         width="100%"
         height="100%" />
    </clipPath>
    <clipPath
       id="clipPath313">
      <use
         id="use311"
         overflow="visible"
         xlink:href="#SVGID_1_"
         style="overflow:visible"
         x="0"
         y="0"
         width="100%"
         height="100%" />
    </clipPath>
    <clipPath
       id="clipPath317">
      <use
         id="use315"
         overflow="visible"
         xlink:href="#SVGID_1_"
         style="overflow:visible"
         x="0"
         y="0"
         width="100%"
         height="100%" />
    </clipPath>
    <clipPath
       id="clipPath321">
      <use
         id="use319"
         overflow="visible"
         xlink:href="#SVGID_1_"
         style="overflow:visible"
         x="0"
         y="0"
         width="100%"
         height="100%" />
    </clipPath>
    <clipPath
       id="clipPath325">
      <use
         id="use323"
         overflow="visible"
         xlink:href="#SVGID_1_"
         style="overflow:visible"
         x="0"
         y="0"
         width="100%"
         height="100%" />
    </clipPath>
    <clipPath
       id="clipPath329">
      <use
         id="use327"
         overflow="visible"
         xlink:href="#SVGID_1_"
         style="overflow:visible"
         x="0"
         y="0"
         width="100%"
         height="100%" />
    </clipPath>
    <clipPath
       id="clipPath333">
      <use
         id="use331"
         overflow="visible"
         xlink:href="#SVGID_1_"
         style="overflow:visible"
         x="0"
         y="0"
         width="100%"
         height="100%" />
    </clipPath>
    <clipPath
       id="clipPath337">
      <use
         id="use335"
         overflow="visible"
         xlink:href="#SVGID_1_"
         style="overflow:visible"
         x="0"
         y="0"
         width="100%"
         height="100%" />
    </clipPath>
    <clipPath
       id="clipPath341">
      <use
         id="use339"
         overflow="visible"
         xlink:href="#SVGID_1_"
         style="overflow:visible"
         x="0"
         y="0"
         width="100%"
         height="100%" />
    </clipPath>
    <clipPath
       id="clipPath345">
      <use
         id="use343"
         overflow="visible"
         xlink:href="#SVGID_1_"
         style="overflow:visible"
         x="0"
         y="0"
         width="100%"
         height="100%" />
    </clipPath>
    <clipPath
       id="clipPath349">
      <use
         id="use347"
         overflow="visible"
         xlink:href="#SVGID_1_"
         style="overflow:visible"
         x="0"
         y="0"
         width="100%"
         height="100%" />
    </clipPath>
    <clipPath
       id="clipPath353">
      <use
         id="use351"
         overflow="visible"
         xlink:href="#SVGID_1_"
         style="overflow:visible"
         x="0"
         y="0"
         width="100%"
         height="100%" />
    </clipPath>
    <clipPath
       id="clipPath357">
      <use
         id="use355"
         overflow="visible"
         xlink:href="#SVGID_1_"
         style="overflow:visible"
         x="0"
         y="0"
         width="100%"
         height="100%" />
    </clipPath>
    <clipPath
       id="clipPath361">
      <use
         id="use359"
         overflow="visible"
         xlink:href="#SVGID_1_"
         style="overflow:visible"
         x="0"
         y="0"
         width="100%"
         height="100%" />
    </clipPath>
    <clipPath
       id="clipPath365">
      <use
         id="use363"
         overflow="visible"
         xlink:href="#SVGID_1_"
         style="overflow:visible"
         x="0"
         y="0"
         width="100%"
         height="100%" />
    </clipPath>
    <clipPath
       id="clipPath369">
      <use
         id="use367"
         overflow="visible"
         xlink:href="#SVGID_1_"
         style="overflow:visible"
         x="0"
         y="0"
         width="100%"
         height="100%" />
    </clipPath>
    <clipPath
       id="clipPath373">
      <use
         id="use371"
         overflow="visible"
         xlink:href="#SVGID_1_"
         style="overflow:visible"
         x="0"
         y="0"
         width="100%"
         height="100%" />
    </clipPath>
    <clipPath
       id="clipPath377">
      <use
         id="use375"
         overflow="visible"
         xlink:href="#SVGID_1_"
         style="overflow:visible"
         x="0"
         y="0"
         width="100%"
         height="100%" />
    </clipPath>
    <clipPath
       id="clipPath381">
      <use
         id="use379"
         overflow="visible"
         xlink:href="#SVGID_1_"
         style="overflow:visible"
         x="0"
         y="0"
         width="100%"
         height="100%" />
    </clipPath>
    <clipPath
       id="clipPath385">
      <use
         id="use383"
         overflow="visible"
         xlink:href="#SVGID_1_"
         style="overflow:visible"
         x="0"
         y="0"
         width="100%"
         height="100%" />
    </clipPath>
    <clipPath
       id="clipPath389">
      <use
         id="use387"
         overflow="visible"
         xlink:href="#SVGID_1_"
         style="overflow:visible"
         x="0"
         y="0"
         width="100%"
         height="100%" />
    </clipPath>
    <clipPath
       id="clipPath393">
      <use
         id="use391"
         overflow="visible"
         xlink:href="#SVGID_1_"
         style="overflow:visible"
         x="0"
         y="0"
         width="100%"
         height="100%" />
    </clipPath>
    <clipPath
       id="clipPath397">
      <use
         id="use395"
         overflow="visible"
         xlink:href="#SVGID_1_"
         style="overflow:visible"
         x="0"
         y="0"
         width="100%"
         height="100%" />
    </clipPath>
    <clipPath
       id="clipPath401">
      <use
         id="use399"
         overflow="visible"
         xlink:href="#SVGID_1_"
         style="overflow:visible"
         x="0"
         y="0"
         width="100%"
         height="100%" />
    </clipPath>
    <clipPath
       id="clipPath405">
      <use
         id="use403"
         overflow="visible"
         xlink:href="#SVGID_1_"
         style="overflow:visible"
         x="0"
         y="0"
         width="100%"
         height="100%" />
    </clipPath>
    <clipPath
       id="clipPath409">
      <use
         id="use407"
         overflow="visible"
         xlink:href="#SVGID_1_"
         style="overflow:visible"
         x="0"
         y="0"
         width="100%"
         height="100%" />
    </clipPath>
    <clipPath
       id="clipPath413">
      <use
         id="use411"
         overflow="visible"
         xlink:href="#SVGID_1_"
         style="overflow:visible"
         x="0"
         y="0"
         width="100%"
         height="100%" />
    </clipPath>
    <clipPath
       id="clipPath417">
      <use
         id="use415"
         overflow="visible"
         xlink:href="#SVGID_1_"
         style="overflow:visible"
         x="0"
         y="0"
         width="100%"
         height="100%" />
    </clipPath>
    <clipPath
       id="clipPath421">
      <use
         id="use419"
         overflow="visible"
         xlink:href="#SVGID_1_"
         style="overflow:visible"
         x="0"
         y="0"
         width="100%"
         height="100%" />
    </clipPath>
    <clipPath
       id="clipPath425">
      <use
         id="use423"
         overflow="visible"
         xlink:href="#SVGID_1_"
         style="overflow:visible"
         x="0"
         y="0"
         width="100%"
         height="100%" />
    </clipPath>
    <clipPath
       id="clipPath429">
      <use
         id="use427"
         overflow="visible"
         xlink:href="#SVGID_1_"
         style="overflow:visible"
         x="0"
         y="0"
         width="100%"
         height="100%" />
    </clipPath>
    <clipPath
       id="clipPath433">
      <use
         id="use431"
         overflow="visible"
         xlink:href="#SVGID_1_"
         style="overflow:visible"
         x="0"
         y="0"
         width="100%"
         height="100%" />
    </clipPath>
    <clipPath
       id="clipPath437">
      <use
         id="use435"
         overflow="visible"
         xlink:href="#SVGID_1_"
         style="overflow:visible"
         x="0"
         y="0"
         width="100%"
         height="100%" />
    </clipPath>
    <clipPath
       id="clipPath441">
      <use
         id="use439"
         overflow="visible"
         xlink:href="#SVGID_1_"
         style="overflow:visible"
         x="0"
         y="0"
         width="100%"
         height="100%" />
    </clipPath>
    <clipPath
       id="clipPath445">
      <use
         id="use443"
         overflow="visible"
         xlink:href="#SVGID_1_"
         style="overflow:visible"
         x="0"
         y="0"
         width="100%"
         height="100%" />
    </clipPath>
    <clipPath
       id="clipPath449">
      <use
         id="use447"
         overflow="visible"
         xlink:href="#SVGID_1_"
         style="overflow:visible"
         x="0"
         y="0"
         width="100%"
         height="100%" />
    </clipPath>
    <clipPath
       id="clipPath453">
      <use
         id="use451"
         overflow="visible"
         xlink:href="#SVGID_1_"
         style="overflow:visible"
         x="0"
         y="0"
         width="100%"
         height="100%" />
    </clipPath>
    <clipPath
       id="clipPath457">
      <use
         id="use455"
         overflow="visible"
         xlink:href="#SVGID_1_"
         style="overflow:visible"
         x="0"
         y="0"
         width="100%"
         height="100%" />
    </clipPath>
    <clipPath
       id="clipPath461">
      <use
         id="use459"
         overflow="visible"
         xlink:href="#SVGID_1_"
         style="overflow:visible"
         x="0"
         y="0"
         width="100%"
         height="100%" />
    </clipPath>
    <clipPath
       id="clipPath465">
      <use
         id="use463"
         overflow="visible"
         xlink:href="#SVGID_1_"
         style="overflow:visible"
         x="0"
         y="0"
         width="100%"
         height="100%" />
    </clipPath>
    <clipPath
       id="clipPath469">
      <use
         id="use467"
         overflow="visible"
         xlink:href="#SVGID_1_"
         style="overflow:visible"
         x="0"
         y="0"
         width="100%"
         height="100%" />
    </clipPath>
    <clipPath
       id="clipPath473">
      <use
         id="use471"
         overflow="visible"
         xlink:href="#SVGID_1_"
         style="overflow:visible"
         x="0"
         y="0"
         width="100%"
         height="100%" />
    </clipPath>
    <clipPath
       id="clipPath477">
      <use
         id="use475"
         overflow="visible"
         xlink:href="#SVGID_1_"
         style="overflow:visible"
         x="0"
         y="0"
         width="100%"
         height="100%" />
    </clipPath>
    <clipPath
       id="clipPath481">
      <use
         id="use479"
         overflow="visible"
         xlink:href="#SVGID_1_"
         style="overflow:visible"
         x="0"
         y="0"
         width="100%"
         height="100%" />
    </clipPath>
    <clipPath
       id="clipPath485">
      <use
         id="use483"
         overflow="visible"
         xlink:href="#SVGID_1_"
         style="overflow:visible"
         x="0"
         y="0"
         width="100%"
         height="100%" />
    </clipPath>
    <clipPath
       id="clipPath489">
      <use
         id="use487"
         overflow="visible"
         xlink:href="#SVGID_1_"
         style="overflow:visible"
         x="0"
         y="0"
         width="100%"
         height="100%" />
    </clipPath>
    <clipPath
       id="clipPath493">
      <use
         id="use491"
         overflow="visible"
         xlink:href="#SVGID_1_"
         style="overflow:visible"
         x="0"
         y="0"
         width="100%"
         height="100%" />
    </clipPath>
    <clipPath
       id="clipPath497">
      <use
         id="use495"
         overflow="visible"
         xlink:href="#SVGID_1_"
         style="overflow:visible"
         x="0"
         y="0"
         width="100%"
         height="100%" />
    </clipPath>
    <clipPath
       id="clipPath501">
      <use
         id="use499"
         overflow="visible"
         xlink:href="#SVGID_1_"
         style="overflow:visible"
         x="0"
         y="0"
         width="100%"
         height="100%" />
    </clipPath>
    <clipPath
       id="clipPath505">
      <use
         id="use503"
         overflow="visible"
         xlink:href="#SVGID_1_"
         style="overflow:visible"
         x="0"
         y="0"
         width="100%"
         height="100%" />
    </clipPath>
    <clipPath
       id="clipPath509">
      <use
         id="use507"
         overflow="visible"
         xlink:href="#SVGID_1_"
         style="overflow:visible"
         x="0"
         y="0"
         width="100%"
         height="100%" />
    </clipPath>
    <clipPath
       id="clipPath513">
      <use
         id="use511"
         overflow="visible"
         xlink:href="#SVGID_1_"
         style="overflow:visible"
         x="0"
         y="0"
         width="100%"
         height="100%" />
    </clipPath>
    <clipPath
       id="clipPath517">
      <use
         id="use515"
         overflow="visible"
         xlink:href="#SVGID_1_"
         style="overflow:visible"
         x="0"
         y="0"
         width="100%"
         height="100%" />
    </clipPath>
    <clipPath
       id="clipPath521">
      <use
         id="use519"
         overflow="visible"
         xlink:href="#SVGID_1_"
         style="overflow:visible"
         x="0"
         y="0"
         width="100%"
         height="100%" />
    </clipPath>
    <clipPath
       id="clipPath525">
      <use
         id="use523"
         overflow="visible"
         xlink:href="#SVGID_1_"
         style="overflow:visible"
         x="0"
         y="0"
         width="100%"
         height="100%" />
    </clipPath>
    <clipPath
       id="clipPath529">
      <use
         id="use527"
         overflow="visible"
         xlink:href="#SVGID_1_"
         style="overflow:visible"
         x="0"
         y="0"
         width="100%"
         height="100%" />
    </clipPath>
    <clipPath
       id="clipPath533">
      <use
         id="use531"
         overflow="visible"
         xlink:href="#SVGID_1_"
         style="overflow:visible"
         x="0"
         y="0"
         width="100%"
         height="100%" />
    </clipPath>
    <path
       d="m 185.563,18.248 c 0.756,-1.747 1.196,-3.572 1.196,-5.261 0,-1.688 -0.44,-3.004 -1.196,-3.877 z"
       id="path1494-6"
       inkscape:connector-curvature="0" />
  </defs>
  <sodipodi:namedview
     id="base"
     pagecolor="#ffffff"
     bordercolor="#666666"
     borderopacity="1.0"
     inkscape:pageopacity="0.0"
     inkscape:pageshadow="2"
     inkscape:zoom="2"
     inkscape:cx="248.6093"
     inkscape:cy="33.776859"
     inkscape:document-units="mm"
     inkscape:current-layer="g2216"
     showgrid="true"
     inkscape:snap-global="true"
     inkscape:snap-intersection-paths="true"
     inkscape:object-paths="true"
     inkscape:snap-smooth-nodes="true"
     inkscape:snap-midpoints="true"
     inkscape:snap-bbox="true"
     inkscape:window-width="1920"
     inkscape:window-height="1025"
     inkscape:window-x="0"
     inkscape:window-y="27"
     inkscape:window-maximized="1"
     fit-margin-top="0"
     fit-margin-left="0"
     fit-margin-right="0"
     fit-margin-bottom="0">
    <inkscape:grid
       type="xygrid"
       id="grid167"
       originx="-33.591696"
       originy="-142.1015" />
  </sodipodi:namedview>
  <metadata
     id="metadata5">
    <rdf:RDF>
      <cc:Work
         rdf:about="">
        <dc:format>image/svg+xml</dc:format>
        <dc:type
           rdf:resource="http://purl.org/dc/dcmitype/StillImage" />
        <dc:title />
      </cc:Work>
    </rdf:RDF>
  </metadata>
  <g
     inkscape:label="Livello 1"
     inkscape:groupmode="layer"
     id="layer1"
     transform="translate(-33.591696,-104.8985)">
    <g
       id="g2216"
       transform="matrix(0.26458333,0,0,0.26458333,31.9315,102.95158)">
      <g
         id="g2778">
        <g
           id="g2741">
          <g
             id="g242"
             transform="matrix(0.86844266,0,0,0.86844266,225.72849,33.649988)">
            <path
               id="path10"
               d="m 317.767,39.347 c 0,0 -29.308,-16.924 -31.064,-17.938 -0.304,-0.175 -0.642,-0.262 -0.979,-0.262 -0.342,0 -0.685,0.089 -0.988,0.267 -0.715,0.419 -3.43,2.022 -5.115,3.018 l -5.77,-5.125 c -0.964,-0.854 -1.721,-2.264 -1.865,-3.458 0.002,-0.087 0.007,-0.213 0.012,-0.34 0.006,-0.2 0.012,-0.397 0.012,-0.502 v -0.885 -0.12 c 0,-0.7 -0.373,-1.347 -0.979,-1.697 l -0.111,-0.063 -8.062,-4.655 c -0.304,-0.175 -0.642,-0.263 -0.98,-0.263 -0.337,0 -0.673,0.087 -0.978,0.261 l -28.877,16.61 -9.83,-15.257 V 0.807 c 0,-2.87 -1.721,-4.875 -4.185,-4.875 -0.917,0 -1.864,0.279 -2.817,0.829 l -8.535,4.96 c -1.45,0.838 -2.873,1.283 -4.109,1.283 -2.495,0 -3.539,-1.781 -3.976,-3.275 -0.024,-0.082 -0.054,-0.161 -0.088,-0.239 l -0.104,-0.237 c -0.162,-0.717 -0.244,-1.49 -0.244,-2.301 0,-0.054 -0.002,-0.108 -0.006,-0.163 -0.002,-0.042 -0.002,-0.097 -0.003,-0.154 0.013,-0.089 0.02,-0.181 0.02,-0.273 0,-2.871 -1.731,-4.876 -4.21,-4.876 -0.922,0 -1.871,0.279 -2.824,0.829 l -65.729,37.961 c -2.886,1.665 -5.061,5.45 -5.061,8.806 v 26.804 c 0,0.376 0.107,0.745 0.313,1.061 l 41.285,64.06 c 0.23,1.823 1.443,3.737 3,4.635 l 50.881,29.381 c 0.628,0.362 1.269,0.546 1.904,0.546 1.535,0 3.09,-1.175 3.09,-3.418 v -32.118 l 8.486,-4.6 c 0.457,-0.248 0.797,-0.665 0.944,-1.162 l 5.581,-18.683 c 1.637,0.295 3.266,0.621 4.86,0.973 0.865,0.19 1.735,0.391 2.587,0.598 1.18,0.287 2.363,0.592 3.52,0.908 0.459,0.127 0.672,0.212 0.883,0.354 0.113,0.077 0.223,0.155 0.334,0.236 0.328,0.235 0.698,0.501 1.146,0.731 0.828,0.426 1.682,0.602 2.416,0.733 0.669,0.119 1.392,0.23 2.156,0.23 l 0.1,-0.001 c 0.668,-0.008 1.297,-0.105 1.871,-0.288 0.598,-0.19 1.053,-0.477 1.422,-0.705 l 0.123,-0.077 c 0.276,-0.171 0.58,-0.338 0.901,-0.513 0.231,-0.128 0.463,-0.254 0.69,-0.386 l 2.394,-1.382 1.055,-0.608 1.827,-1.055 1.607,-0.929 1.609,-0.929 0.912,-0.525 2.49,-1.438 3.438,-1.985 3.322,-1.919 2.147,-1.239 0.908,-0.524 2.64,-1.523 1.035,-0.598 1.036,-0.599 0.89,-0.514 c 5.03,2.908 27.42,15.857 27.67,16.002 0.629,0.364 1.266,0.546 1.896,0.546 1.518,0 3.055,-1.173 3.055,-3.417 V 41.043 c 0,-0.7 -0.373,-1.346 -0.979,-1.696 m -0.98,66.398 c 0,0.925 -0.438,1.458 -1.096,1.458 -0.271,0 -0.582,-0.091 -0.916,-0.283 0,0 -27.863,-16.116 -28.648,-16.569 -0.02,0.01 -0.033,0.019 -0.033,0.019 -0.162,0.093 -0.322,0.187 -0.484,0.28 -0.451,0.261 -0.902,0.521 -1.354,0.781 -0.689,0.398 -1.381,0.798 -2.072,1.196 -0.879,0.508 -1.759,1.016 -2.638,1.524 -1.021,0.588 -2.038,1.176 -3.057,1.764 -1.106,0.64 -2.216,1.28 -3.321,1.918 -1.146,0.662 -2.293,1.323 -3.438,1.985 -1.134,0.655 -2.269,1.31 -3.402,1.964 -1.073,0.62 -2.145,1.239 -3.218,1.857 -0.96,0.555 -1.92,1.109 -2.881,1.665 -0.797,0.46 -1.596,0.921 -2.394,1.381 -0.542,0.313 -1.114,0.602 -1.644,0.93 -0.363,0.225 -0.695,0.45 -1.107,0.581 -0.42,0.134 -0.862,0.191 -1.302,0.196 -0.025,0 -0.05,0 -0.075,0 -0.608,0 -1.213,-0.093 -1.811,-0.199 -0.641,-0.115 -1.289,-0.25 -1.866,-0.547 -0.456,-0.234 -0.854,-0.56 -1.276,-0.846 -0.469,-0.317 -0.922,-0.472 -1.465,-0.621 -1.187,-0.326 -2.379,-0.633 -3.575,-0.924 -0.874,-0.211 -1.749,-0.413 -2.628,-0.607 -2.207,-0.486 -4.429,-0.916 -6.66,-1.289 l -6.08,20.351 -9.513,5.156 v 33.285 c 0,0.925 -0.458,1.458 -1.13,1.458 -0.277,0 -0.59,-0.091 -0.924,-0.283 l -50.882,-29.381 c -1.138,-0.656 -2.062,-2.248 -2.062,-3.555 l 0.04,0.04 -41.597,-64.544 V 39.082 c 0,-2.612 1.805,-5.796 4.081,-7.111 l 65.729,-37.96 c 0.665,-0.385 1.292,-0.566 1.845,-0.566 1.34,0 2.25,1.067 2.25,2.917 l -0.02,-0.004 c 0,0 0,0.591 0.01,0.595 0,1.051 0.119,2.034 0.338,2.926 l 0.177,0.4 c 0.895,3.062 3.077,4.684 5.856,4.684 1.552,0 3.289,-0.505 5.094,-1.547 l 8.53,-4.958 c 0.665,-0.385 1.288,-0.566 1.838,-0.566 1.331,0 2.226,1.066 2.226,2.916 v 8.555 l -0.086,0.019 11.262,17.479 0.006,-0.055 30.462,-17.521 8.063,4.655 c 0,0 0.055,0.031 0.109,0.063 v 0.12 0.885 c 0,0.212 -0.031,0.865 -0.021,0.96 0.168,1.696 1.165,3.605 2.521,4.805 l 0.547,0.486 7.965,4.598 c 1.652,-0.976 4.01,-2.368 4.662,-2.75 1.758,1.014 31.064,17.938 31.064,17.938 v 64.7 z"
               inkscape:connector-curvature="0"
               style="fill:#000000;fill-opacity:0.72822302" />
            <path
               id="path12"
               d="m 250.365,109.224 c -0.053,0 -0.104,-0.03 -0.127,-0.082 l -7.74,-16.975 c -0.188,-0.41 -0.438,-0.744 -0.742,-0.995 -0.061,-0.049 -0.07,-0.137 -0.02,-0.197 0.049,-0.059 0.137,-0.068 0.196,-0.02 0.338,0.278 0.614,0.647 0.819,1.097 l 7.74,16.975 c 0.032,0.07 10e-4,0.154 -0.069,0.186 -0.018,0.007 -0.037,0.011 -0.057,0.011"
               inkscape:connector-curvature="0"
               style="fill:#000000;fill-opacity:1" />
            <path
               id="path14"
               d="m 251.938,109.503 c -0.053,0 -0.103,-0.029 -0.127,-0.082 l -7.74,-16.975 c -0.376,-0.823 -1.003,-1.337 -1.814,-1.483 -0.076,-0.015 -0.127,-0.088 -0.113,-0.163 0.014,-0.077 0.085,-0.126 0.162,-0.113 0.906,0.165 1.604,0.731 2.021,1.643 l 7.741,16.976 c 0.031,0.07 0,0.153 -0.07,0.186 -0.02,0.008 -0.04,0.011 -0.06,0.011"
               inkscape:connector-curvature="0"
               style="fill:#000000;fill-opacity:1" />
            <path
               id="path16"
               d="m 228.433,124.084 c -0.026,0 -0.054,-0.003 -0.081,-0.011 -0.147,-0.046 -0.231,-0.201 -0.188,-0.349 l 7.74,-25.914 c 0.54,-1.806 1.555,-3.556 2.857,-4.927 1.634,-1.72 3.515,-2.596 5.035,-2.34 0.973,0.163 1.72,0.76 2.161,1.729 l 7.741,16.975 c 0.063,0.141 0.002,0.307 -0.139,0.371 -0.139,0.065 -0.307,0.003 -0.371,-0.139 l -7.741,-16.975 c -0.36,-0.792 -0.964,-1.277 -1.745,-1.409 -1.334,-0.224 -3.029,0.588 -4.535,2.174 -1.227,1.291 -2.219,3.004 -2.727,4.702 l -7.74,25.914 c -0.036,0.121 -0.147,0.199 -0.267,0.199"
               inkscape:connector-curvature="0"
               style="fill:#040201;fill-opacity:1" />
            <path
               id="path18"
               d="m 219.03,116.617 c -0.102,0 -0.199,-0.055 -0.249,-0.15 -0.07,-0.138 -0.018,-0.307 0.119,-0.377 0.199,-0.103 0.398,-0.213 0.6,-0.33 6.363,-3.674 11.541,-12.602 11.541,-19.902 0,-2.372 -0.557,-4.346 -1.589,-5.738 0.491,1.24 0.747,2.708 0.747,4.338 0,7.186 -4.889,15.958 -11.133,19.97 -0.131,0.082 -0.303,0.045 -0.385,-0.085 -0.084,-0.13 -0.047,-0.303 0.082,-0.387 6.1,-3.919 10.877,-12.484 10.877,-19.499 0,-2.308 -0.529,-4.265 -1.532,-5.659 -0.079,-0.111 -0.067,-0.263 0.028,-0.36 0.096,-0.097 0.248,-0.112 0.359,-0.032 2.002,1.404 3.104,4.05 3.104,7.452 0,7.479 -5.303,16.625 -11.82,20.387 -0.208,0.12 -0.416,0.234 -0.621,0.341 -0.041,0.021 -0.086,0.031 -0.128,0.031"
               inkscape:connector-curvature="0"
               style="fill:#000000;fill-opacity:1" />
            <path
               id="path20"
               d="m 218.916,114.471 c -0.092,0 -0.182,-0.046 -0.236,-0.128 -0.082,-0.132 -0.045,-0.304 0.086,-0.388 6.098,-3.918 10.874,-12.484 10.874,-19.498 0,-2.288 -0.519,-4.229 -1.503,-5.622 -1.709,-1.175 -4.035,-1.273 -6.559,-0.272 -0.145,0.057 -0.307,-0.013 -0.365,-0.157 -0.055,-0.144 0.014,-0.306 0.158,-0.364 2.724,-1.078 5.254,-0.95 7.125,0.363 0.025,0.018 0.048,0.04 0.067,0.065 1.069,1.49 1.638,3.56 1.638,5.987 0,7.185 -4.891,15.958 -11.135,19.969 -0.046,0.031 -0.098,0.045 -0.15,0.045"
               inkscape:connector-curvature="0"
               style="fill:#000000;fill-opacity:1" />
            <path
               id="path24"
               d="m 218.934,97.963 c -0.072,0 -0.146,-0.019 -0.211,-0.057 L 163.7,66.14 c -0.13,-0.076 -0.211,-0.214 -0.21,-0.364 0,-0.15 0.08,-0.289 0.21,-0.364 L 261.752,9.014 c 0.131,-0.075 0.291,-0.075 0.421,0 l 8.063,4.655 c 0.199,0.115 0.268,0.373 0.152,0.573 -0.116,0.201 -0.372,0.27 -0.573,0.154 l -7.853,-4.534 -97.212,55.915 54.183,31.282 3.481,-2.011 c 0.208,-0.119 0.86,-0.552 0.575,-1.111 -2.875,-5.651 -3.163,-11.68 -0.832,-17.437 3.35,-8.27 10.614,-15.813 21.006,-21.813 10.357,-5.98 23.352,-10.156 37.579,-12.078 9.81,-1.324 20.088,-1.159 29.726,0.475 0.929,0.158 1.928,0.014 2.604,-0.376 l 3.063,-1.769 -30.314,-17.5 c -0.2,-0.116 -0.268,-0.373 -0.152,-0.574 0.115,-0.201 0.373,-0.269 0.572,-0.153 l 30.943,17.865 c 0.129,0.075 0.21,0.213 0.21,0.363 0,0.15 -0.081,0.29 -0.21,0.364 l -3.692,2.131 c -0.837,0.483 -2.048,0.667 -3.163,0.478 -9.555,-1.621 -19.746,-1.784 -29.473,-0.47 -14.119,1.906 -27.008,6.046 -37.272,11.971 -10.228,5.906 -17.367,13.307 -20.646,21.402 -2.236,5.523 -1.961,11.313 0.802,16.741 0.405,0.797 0.052,1.667 -0.903,2.219 l -3.692,2.131 c -0.067,0.037 -0.139,0.056 -0.211,0.056"
               inkscape:connector-curvature="0"
               style="fill:#010000;fill-opacity:1" />
            <path
               id="path26"
               d="m 266.43,31.851 c -2.865,0 -5.725,-0.627 -7.9,-1.882 -2.133,-1.231 -3.308,-2.88 -3.309,-4.643 0,-1.777 1.192,-3.445 3.357,-4.695 l 11.376,-6.719 c 0.065,-0.038 0.153,-0.018 0.192,0.049 0.039,0.067 0.016,0.153 -0.051,0.192 l -11.376,6.72 c -2.076,1.198 -3.22,2.78 -3.22,4.453 0,1.658 1.126,3.221 3.168,4.4 4.292,2.478 11.295,2.465 15.614,-0.029 l 11.679,-6.743 c 0.066,-0.039 0.152,-0.016 0.191,0.052 0.038,0.066 0.016,0.152 -0.052,0.191 l -11.68,6.743 c -2.204,1.274 -5.1,1.911 -7.989,1.911"
               inkscape:connector-curvature="0"
               style="fill:#010000;fill-opacity:1" />
            <path
               id="path28"
               d="m 218.934,97.963 c -0.072,0 -0.144,-0.018 -0.211,-0.057 l -55.01,-31.76 c -0.201,-0.116 -0.27,-0.373 -0.154,-0.574 0.117,-0.201 0.373,-0.27 0.573,-0.153 l 55.012,31.76 c 0.2,0.117 0.27,0.373 0.153,0.574 -0.078,0.136 -0.219,0.21 -0.363,0.21"
               inkscape:connector-curvature="0"
               style="fill:#040201;fill-opacity:1" />
            <path
               id="path30"
               d="m 217.799,164.125 c -0.357,0 -0.744,-0.114 -1.137,-0.342 l -50.889,-29.38 c -1.273,-0.735 -2.271,-2.456 -2.271,-3.919 V 65.783 c 0,-0.232 0.188,-0.419 0.42,-0.419 0.232,0 0.42,0.187 0.42,0.419 v 64.701 c 0,1.151 0.848,2.613 1.852,3.192 l 50.889,29.379 c 0.412,0.238 0.791,0.292 1.043,0.147 0.247,-0.144 0.389,-0.493 0.389,-0.959 v -64.7 c 0,-0.232 0.188,-0.419 0.42,-0.419 0.232,0 0.42,0.187 0.42,0.419 v 64.701 c 0,0.786 -0.287,1.385 -0.81,1.685 -0.227,0.131 -0.479,0.196 -0.746,0.196"
               inkscape:connector-curvature="0"
               style="fill:#010000;fill-opacity:1" />
            <path
               id="path32"
               d="m 122.281,66.12 c -0.023,0 -0.047,-0.005 -0.068,-0.019 -0.045,-0.024 -0.07,-0.071 -0.07,-0.121 V 39.176 c 0,-2.653 1.881,-5.896 4.192,-7.231 l 65.749,-37.96 c 0.672,-0.389 1.318,-0.585 1.92,-0.585 1.453,0 2.396,1.18 2.412,3.011 0.004,0.013 0.008,0.027 0.008,0.042 v 0.591 c 0,0.014 -0.004,0.029 -0.008,0.042 0.004,1.025 0.113,1.985 0.326,2.854 l 0.114,0.395 c 0.851,2.911 2.915,4.582 5.667,4.582 1.545,0 3.279,-0.531 5.02,-1.535 0.012,-0.007 0.025,-0.014 0.041,-0.016 l 8.547,-4.934 c 0.672,-0.389 1.318,-0.585 1.92,-0.585 1.465,0 2.411,1.2 2.411,3.056 v 8.476 c 0,0.049 -0.026,0.095 -0.069,0.121 l -98.041,56.603 c -0.022,0.012 -0.045,0.017 -0.071,0.017 m 71.723,-72.441 c -0.552,0 -1.15,0.185 -1.781,0.547 l -65.748,37.961 c -2.234,1.289 -4.053,4.424 -4.053,6.988 V 65.738 L 220.182,9.296 V 0.902 c 0,-1.712 -0.815,-2.777 -2.131,-2.777 -0.553,0 -1.152,0.184 -1.78,0.548 l -8.589,4.958 c -0.012,0.007 -0.027,0.013 -0.041,0.015 -1.768,1.014 -3.535,1.549 -5.117,1.549 -2.884,0 -5.047,-1.743 -5.936,-4.783 L 196.472,0.01 c -0.223,-0.907 -0.336,-1.903 -0.336,-2.964 0,-0.015 0.003,-0.029 0.007,-0.043 v -0.508 c -0.004,-0.013 -0.007,-0.026 -0.007,-0.041 0,-1.711 -0.816,-2.775 -2.132,-2.775"
               inkscape:connector-curvature="0"
               style="fill:#020100;fill-opacity:1" />
            <path
               id="path224"
               d="m 161.881,35.03 v 0 c -2.584,-10e-4 -4.256,-2.114 -4.256,-5.383 0,-4.655 3.299,-10.345 7.354,-12.687 l 14.428,-8.329 c 1.182,-0.682 2.318,-1.028 3.379,-1.028 2.585,0 4.256,2.113 4.256,5.384 0,4.653 -3.299,10.344 -7.354,12.685 l -14.429,8.331 c -1.182,0.682 -2.318,1.027 -3.378,1.027 M 182.785,8.163 c -0.961,0 -2.003,0.321 -3.099,0.954 l -14.429,8.33 c -3.899,2.252 -7.072,7.725 -7.072,12.201 0,2.975 1.416,4.823 3.695,4.824 v 0 c 0.961,0 2.002,-0.321 3.098,-0.954 l 14.428,-8.331 c 3.901,-2.251 7.074,-7.725 7.074,-12.2 0,-2.976 -1.416,-4.824 -3.695,-4.824"
               inkscape:connector-curvature="0"
               style="fill:#000000;fill-opacity:1" />
            <path
               id="path226"
               d="m 217.955,55.033 v 0 c -2.775,0 -5.391,-0.626 -7.359,-1.763 -2.041,-1.179 -3.166,-2.773 -3.166,-4.492 0,-1.73 1.14,-3.343 3.211,-4.538 l 14.428,-8.331 c 1.998,-1.153 4.642,-1.789 7.442,-1.789 2.776,0 5.392,0.626 7.361,1.763 2.042,1.179 3.165,2.774 3.165,4.492 0,1.731 -1.141,3.343 -3.211,4.539 l -14.428,8.331 c -1.998,1.154 -4.64,1.788 -7.443,1.788 M 232.511,34.96 c -2.656,0 -5.149,0.595 -7.022,1.677 l -14.429,8.329 c -1.8,1.04 -2.79,2.394 -2.79,3.812 0,1.406 0.975,2.743 2.746,3.765 1.844,1.064 4.309,1.65 6.939,1.65 2.658,0 5.15,-0.595 7.023,-1.676 l 14.428,-8.33 c 1.8,-1.04 2.791,-2.393 2.791,-3.812 0,-1.405 -0.975,-2.742 -2.746,-3.765 -1.843,-1.063 -4.308,-1.65 -6.94,-1.65"
               inkscape:connector-curvature="0"
               style="fill:#010000;fill-opacity:1" />
            <path
               id="path228"
               d="m 163.922,130.624 c -0.045,0 -0.09,-0.022 -0.117,-0.063 l -41.64,-64.504 c -0.042,-0.064 -0.023,-0.152 0.041,-0.194 0.065,-0.042 0.151,-0.022 0.194,0.042 l 41.639,64.504 c 0.043,0.065 0.023,0.152 -0.041,0.193 -0.023,0.017 -0.049,0.022 -0.076,0.022"
               inkscape:connector-curvature="0"
               style="fill:#000000;fill-opacity:1" />
            <path
               id="path230"
               d="m 267.529,19.012 11.976,6.915 -5.61,3.24 c -1.719,0.992 -4.016,1.537 -6.47,1.537 -2.43,0 -4.7,-0.537 -6.39,-1.513 -1.545,-0.892 -2.395,-2.029 -2.395,-3.204 0,-1.188 0.865,-2.342 2.438,-3.25 l 6.451,-3.725 m 0,-0.97 -6.871,3.967 c -3.795,2.19 -3.813,5.731 -0.043,7.908 1.877,1.084 4.342,1.625 6.81,1.625 2.489,0 4.983,-0.55 6.889,-1.65 l 6.87,-3.966 z"
               inkscape:connector-curvature="0"
               style="fill:#040201;fill-opacity:1" />
            <path
               id="path232"
               d="m 256.999,93.292 v 0 c -2.125,0 -3.883,-0.884 -5.085,-2.555 -0.079,-0.11 -0.068,-0.263 0.029,-0.36 0.094,-0.097 0.247,-0.111 0.358,-0.033 0.935,0.656 2.044,0.989 3.296,0.989 1.584,0 3.301,-0.526 5.101,-1.565 6.362,-3.673 11.538,-12.603 11.538,-19.903 0,-2.309 -0.529,-4.266 -1.531,-5.66 -0.08,-0.111 -0.068,-0.264 0.027,-0.36 0.096,-0.097 0.248,-0.11 0.36,-0.033 2.001,1.404 3.104,4.051 3.104,7.452 0,7.479 -5.302,16.626 -11.819,20.388 -1.885,1.088 -3.695,1.64 -5.378,1.64 m -3.558,-1.744 c 0.975,0.779 2.182,1.184 3.558,1.184 1.583,0.001 3.298,-0.525 5.097,-1.564 6.364,-3.675 11.541,-12.602 11.541,-19.904 0,-2.371 -0.555,-4.346 -1.588,-5.738 0.492,1.24 0.748,2.709 0.748,4.339 0,7.479 -5.303,16.625 -11.82,20.388 -1.885,1.089 -3.695,1.642 -5.379,1.642 -0.768,-10e-4 -1.489,-0.118 -2.157,-0.347"
               inkscape:connector-curvature="0"
               style="fill:#010000;fill-opacity:1" />
            <path
               id="path234"
               d="m 255.598,91.893 v 0 c -1.369,0 -2.586,-0.367 -3.617,-1.09 -0.025,-0.018 -0.048,-0.04 -0.066,-0.066 -1.072,-1.49 -1.637,-3.56 -1.637,-5.986 0,-7.479 5.301,-16.625 11.818,-20.389 1.886,-1.088 3.697,-1.639 5.381,-1.639 1.368,0 2.584,0.366 3.616,1.09 0.024,0.018 0.048,0.039 0.065,0.065 1.072,1.49 1.639,3.561 1.639,5.986 0,7.479 -5.303,16.625 -11.82,20.388 -1.885,1.089 -3.695,1.641 -5.379,1.641 m -3.256,-1.521 c 0.926,0.638 2.021,0.961 3.256,0.961 1.585,0 3.301,-0.526 5.1,-1.564 6.363,-3.674 11.539,-12.603 11.539,-19.904 0,-2.287 -0.52,-4.229 -1.504,-5.621 -0.926,-0.638 -2.021,-0.962 -3.256,-0.962 -1.585,0 -3.301,0.527 -5.101,1.567 -6.363,3.674 -11.54,12.602 -11.54,19.903 0,2.286 0.521,4.227 1.506,5.62"
               inkscape:connector-curvature="0"
               style="fill:#030101;fill-opacity:1" />
            <path
               id="path236"
               d="m 263.318,84.806 -0.434,-0.353 c 0.945,-1.166 1.812,-2.427 2.572,-3.749 0.97,-1.676 1.767,-3.441 2.369,-5.242 l 0.531,0.178 c -0.615,1.837 -1.427,3.635 -2.414,5.344 -0.776,1.347 -1.659,2.633 -2.624,3.822"
               inkscape:connector-curvature="0"
               style="fill:#050201;fill-opacity:1" />
            <path
               id="path238"
               d="m 221.619,107.754 -0.434,-0.353 c 0.944,-1.166 1.81,-2.427 2.572,-3.747 0.969,-1.678 1.766,-3.441 2.368,-5.243 l 0.531,0.178 c -0.616,1.837 -1.428,3.635 -2.415,5.344 -0.776,1.347 -1.658,2.632 -2.622,3.821"
               inkscape:connector-curvature="0"
               style="fill:#020101;fill-opacity:1" />
            <path
               id="path240"
               d="m 286.127,90.77 c -0.232,0 -0.42,-0.188 -0.42,-0.418 V 42.464 c 0,-0.231 0.188,-0.419 0.42,-0.419 0.231,0 0.42,0.188 0.42,0.419 v 47.887 c 0,0.231 -0.189,0.419 -0.42,0.419"
               inkscape:connector-curvature="0"
               style="fill:#000000;fill-opacity:1" />
          </g>
        </g>
        <g
           transform="matrix(1.7985552,0,0,1.7985552,-5.1487745,-55.601341)"
           style="stroke:#686868;stroke-width:2;stroke-linecap:round;stroke-miterlimit:4;stroke-dasharray:none;stroke-opacity:0.98431373"
           id="g2366">
          <path
             style="fill:none;stroke:#686868;stroke-width:2;stroke-linecap:round;stroke-linejoin:miter;stroke-miterlimit:4;stroke-dasharray:none;stroke-opacity:0.98431373"
             d="m 144.31401,68.41135 v 40"
             id="path2360"
             inkscape:connector-curvature="0" />
          <path
             style="fill:none;stroke:#686868;stroke-width:2;stroke-linecap:round;stroke-linejoin:miter;stroke-miterlimit:4;stroke-dasharray:none;stroke-opacity:0.98431373"
             d="m 124.31401,88.41135 h 40"
             id="path2362"
             inkscape:connector-curvature="0" />
        </g>
        <g
           id="g2718">
          <g
             id="g1384"
             transform="translate(46.053517,-4.074291)">
            <g
               id="g2698">
              <path
                 style="fill:none;stroke:#020100;stroke-width:1.87100661;stroke-miterlimit:10;stroke-opacity:1"
                 inkscape:connector-curvature="0"
                 stroke-miterlimit="10"
                 d="M 84.938032,23.105624 V 186.42408 c 0,6.49694 -3.717119,13.04952 -10.699683,13.04952 h -1.335221 c 4.829803,0 8.950506,-6.23763 8.950506,-13.04952 V 23.105624 c 0,-5.180581 -3.916082,-9.380492 -8.744,-9.380492 l -56.759147,5.615283 c -4.371528,0 -7.8151909,4.433763 -8.4290531,9.117409 0.3300334,-4.700619 1.7868952,-8.676108 8.2234901,-10.043389 l 52.776115,-5.533246 4.59878,-0.512966 c 6.522403,0 11.418213,3.863277 11.418213,10.737401 z"
                 id="path1456" />
              <path
                 style="fill:none;stroke:#040201;stroke-width:1.87100661;stroke-miterlimit:10;stroke-opacity:1"
                 inkscape:connector-curvature="0"
                 stroke-miterlimit="10"
                 d="M 81.854577,186.42408 V 23.105624 c 0,-5.180581 -3.916082,-9.380492 -8.744,-9.380492 l -56.76009,5.615283 c -4.371528,0 -7.8151909,4.433763 -8.4290531,9.117409 -0.096181,1.37671 -0.097124,2.814713 -0.097124,4.267803 V 185.52356 c 0,5.18058 3.9141961,10.28195 8.7430561,10.28195 l 56.335762,3.66809 c 4.830746,0 8.951449,-6.23763 8.951449,-13.04952 z"
                 id="path1460" />
              <path
                 style="fill:none;stroke:#000000;stroke-width:0.84733719;stroke-miterlimit:10;stroke-opacity:1"
                 inkscape:connector-curvature="0"
                 stroke-miterlimit="10"
                 d="m 84.093147,75.130206 c 0,-0.332862 -0.268742,-0.601603 -0.600661,-0.601603 v 0 c -0.33192,0 -0.600661,0.268741 -0.600661,0.601603 v 10.329103 c 0,0.33192 0.268741,0.601604 0.600661,0.601604 v 0 c 0.331919,0 0.600661,-0.269684 0.600661,-0.601604 z"
                 id="path1462" />
              <path
                 style="fill:none;stroke:#000000;stroke-width:0.84733719;stroke-miterlimit:10;stroke-opacity:1"
                 inkscape:connector-curvature="0"
                 stroke-miterlimit="10"
                 d="m 84.093147,94.246685 c 0,-0.673268 -0.268742,-1.220181 -0.600661,-1.220181 v 0 c -0.33192,0 -0.600661,0.546913 -0.600661,1.220181 v 20.982585 c 0,0.67421 0.268741,1.21923 0.600661,1.21923 v 0 c 0.331919,0 0.600661,-0.54502 0.600661,-1.21923 z"
                 id="path1464" />
              <polygon
                 transform="matrix(0.94295262,0,0,0.94295262,6.8889008,11.432814)"
                 style="fill:none;stroke:#030101;stroke-width:0.89859998;stroke-miterlimit:10;stroke-opacity:1"
                 stroke-miterlimit="10"
                 points="4.472,27.708 4.472,177.208 76.441,179.498 76.441,21.492 "
                 id="polygon1466" />
              <path
                 style="fill:none;stroke:#000000;stroke-width:0.84733719;stroke-miterlimit:10;stroke-opacity:1"
                 inkscape:connector-curvature="0"
                 stroke-miterlimit="10"
                 d="m 56.080853,22.807651 c -0.0528,-0.451674 -0.461104,-0.773221 -0.912778,-0.721358 L 31.680068,24.85103 c -0.451674,0.0528 -0.773221,0.461104 -0.720416,0.912778 v 0 c 0.05281,0.451674 0.461104,0.773221 0.912778,0.720416 L 55.360437,23.72043 c 0.451675,-0.05375 0.774164,-0.462047 0.720416,-0.912779 z"
                 id="path1468" />
              <ellipse
                 style="fill:none;stroke:#000000;stroke-width:0.84733719;stroke-miterlimit:10;stroke-opacity:1"
                 stroke-miterlimit="10"
                 cx="22.130787"
                 cy="26.489882"
                 rx="1.0806237"
                 ry="1.3371068"
                 id="ellipse1470" />
            </g>
          </g>
        </g>
      </g>
    </g>
  </g>
</svg>
