<?xml version="1.0" encoding="UTF-8" standalone="no"?>
<!-- Created with Inkscape (http://www.inkscape.org/) -->

<svg
   xmlns:dc="http://purl.org/dc/elements/1.1/"
   xmlns:cc="http://creativecommons.org/ns#"
   xmlns:rdf="http://www.w3.org/1999/02/22-rdf-syntax-ns#"
   xmlns:svg="http://www.w3.org/2000/svg"
   xmlns="http://www.w3.org/2000/svg"
   xmlns:xlink="http://www.w3.org/1999/xlink"
   xmlns:sodipodi="http://sodipodi.sourceforge.net/DTD/sodipodi-0.dtd"
   xmlns:inkscape="http://www.inkscape.org/namespaces/inkscape"
   version="1.0"
   width="1009.6285"
   height="393.37167"
   id="svg7735"
   sodipodi:docname="scrum-process.svg"
   inkscape:version="0.92.2 5c3e80d, 2017-08-06"
   inkscape:export-filename="/home/bertof/Documenti/Tesi di laurea/immagini/scrum-process.png"
   inkscape:export-xdpi="192"
   inkscape:export-ydpi="192">
  <metadata
     id="metadata88">
    <rdf:RDF>
      <cc:Work
         rdf:about="">
        <dc:format>image/svg+xml</dc:format>
        <dc:type
           rdf:resource="http://purl.org/dc/dcmitype/StillImage" />
        <dc:title></dc:title>
      </cc:Work>
    </rdf:RDF>
  </metadata>
  <sodipodi:namedview
     pagecolor="#ffffff"
     bordercolor="#666666"
     borderopacity="1"
     objecttolerance="10"
     gridtolerance="10"
     guidetolerance="10"
     inkscape:pageopacity="0"
     inkscape:pageshadow="2"
     inkscape:window-width="1920"
     inkscape:window-height="1025"
     id="namedview86"
     showgrid="false"
     inkscape:zoom="0.59821234"
     inkscape:cx="417.1444"
     inkscape:cy="31.021387"
     inkscape:window-x="0"
     inkscape:window-y="27"
     inkscape:window-maximized="1"
     inkscape:current-layer="layer1"
     fit-margin-top="0"
     fit-margin-left="0"
     fit-margin-right="0"
     fit-margin-bottom="0" />
  <defs
     id="defs7737">
    <linearGradient
       x1="320.48965"
       y1="997.25226"
       x2="315.38376"
       y2="801.52301"
       id="linearGradient7733"
       xlink:href="#linearGradient7432"
       gradientUnits="userSpaceOnUse"
       gradientTransform="matrix(20.53135,0,0,22.526701,7201.5647,-7493.9062)" />
    <linearGradient
       x1="320.48965"
       y1="997.25226"
       x2="315.38376"
       y2="801.52301"
       id="linearGradient7731"
       xlink:href="#linearGradient7432"
       gradientUnits="userSpaceOnUse"
       gradientTransform="matrix(20.53135,0,0,22.526701,6642.7645,-7493.9062)" />
    <linearGradient
       x1="320.48965"
       y1="997.25226"
       x2="315.38376"
       y2="801.52301"
       id="linearGradient7729"
       xlink:href="#linearGradient7432"
       gradientUnits="userSpaceOnUse"
       gradientTransform="matrix(20.53135,0,0,22.526701,6060.6994,-7482.4114)" />
    <linearGradient
       id="linearGradient7432">
      <stop
         id="stop7434"
         style="stop-color:#b3b3b3;stop-opacity:1"
         offset="0" />
      <stop
         id="stop7436"
         style="stop-color:#b3b3b3;stop-opacity:0"
         offset="1" />
    </linearGradient>
    <linearGradient
       x1="320.48965"
       y1="997.25226"
       x2="315.38376"
       y2="801.52301"
       id="linearGradient7727"
       xlink:href="#linearGradient7432"
       gradientUnits="userSpaceOnUse"
       gradientTransform="matrix(20.53135,0,0,22.526701,5495.4212,-7465.4451)" />
    <inkscape:perspective
       id="perspective7743" />
    <linearGradient
       x1="320.48965"
       y1="997.25226"
       x2="315.38376"
       y2="801.52301"
       id="linearGradient7899"
       xlink:href="#linearGradient7432"
       gradientUnits="userSpaceOnUse"
       gradientTransform="matrix(20.53135,0,0,22.526701,5495.4212,-7465.4451)" />
    <linearGradient
       x1="320.48965"
       y1="997.25226"
       x2="315.38376"
       y2="801.52301"
       id="linearGradient7901"
       xlink:href="#linearGradient7432"
       gradientUnits="userSpaceOnUse"
       gradientTransform="matrix(20.53135,0,0,22.526701,6060.6994,-7482.4114)" />
    <linearGradient
       x1="320.48965"
       y1="997.25226"
       x2="315.38376"
       y2="801.52301"
       id="linearGradient7903"
       xlink:href="#linearGradient7432"
       gradientUnits="userSpaceOnUse"
       gradientTransform="matrix(20.53135,0,0,22.526701,6642.7645,-7493.9062)" />
    <linearGradient
       x1="320.48965"
       y1="997.25226"
       x2="315.38376"
       y2="801.52301"
       id="linearGradient7905"
       xlink:href="#linearGradient7432"
       gradientUnits="userSpaceOnUse"
       gradientTransform="matrix(20.53135,0,0,22.526701,7201.5647,-7493.9062)" />
  </defs>
  <g
     id="layer1"
     transform="translate(-24.144698,-35.206096)">
    <g
       transform="matrix(0.035433,0,0,0.035433,-150.33974,-154.40525)"
       id="g2549"
       style="visibility:visible;fill-rule:evenodd;stroke:#009f9e;stroke-width:64.86071777;stroke-miterlimit:4;stroke-dasharray:none;stroke-opacity:1">
      <desc
         id="desc2551">Drawing</desc>
      <g
         id="g2553"
         style="stroke:#009f9e;stroke-width:64.86071777;stroke-miterlimit:4;stroke-dasharray:none;stroke-opacity:1">
        <g
           id="g2555"
           style="fill:#99ccff;stroke:#009f9e;stroke-width:64.86071777;stroke-miterlimit:4;stroke-dasharray:none;stroke-opacity:1">
          <path
             d="m 10044,12849 h 2408 v -489 l 803,979 -803,979 v -490 h -2408 z"
             id="path2557"
             style="stroke:#009f9e;stroke-width:64.86071777;stroke-miterlimit:4;stroke-dasharray:none;stroke-opacity:1"
             inkscape:connector-curvature="0" />
        </g>
        <g
           id="g2559"
           style="fill:none;stroke:#009f9e;stroke-width:64.86071777;stroke-miterlimit:4;stroke-dasharray:none;stroke-opacity:1">
          <path
             d="m 10044,12849 h 2408 v -489 l 803,979 -803,979 v -490 h -2408 v -979"
             id="path2561"
             style="fill:none;stroke:#009f9e;stroke-width:64.86071777;stroke-miterlimit:4;stroke-dasharray:none;stroke-opacity:1"
             inkscape:connector-curvature="0" />
        </g>
        <g
           id="g2563"
           style="stroke:#009f9e;stroke-width:64.86071777;stroke-miterlimit:4;stroke-dasharray:none;stroke-opacity:1" />
      </g>
    </g>
    <g
       transform="matrix(0.035433,0,0,0.035433,-26.884938,-143.219)"
       id="g2565"
       style="visibility:visible;fill-rule:evenodd;stroke:#009f9e;stroke-width:64.86071777;stroke-miterlimit:4;stroke-dasharray:none;stroke-opacity:1">
      <desc
         id="desc2567">Drawing</desc>
      <g
         id="g2569"
         style="stroke:#009f9e;stroke-width:64.86071777;stroke-miterlimit:4;stroke-dasharray:none;stroke-opacity:1">
        <g
           id="g2571"
           style="fill:#99ccff;stroke:#009f9e;stroke-width:64.86071777;stroke-miterlimit:4;stroke-dasharray:none;stroke-opacity:1">
          <path
             d="m 18411,7164 -10,-81 -14,-81 -18,-80 -22,-79 -26,-78 -30,-76 -34,-75 -37,-73 -41,-71 -44,-70 -48,-66 -52,-65 -54,-62 -58,-59 -60,-56 -63,-53 -66,-50 -68,-47 -71,-43 -72,-40 -75,-36 -76,-32 -78,-29 -79,-25 -80,-21 -81,-16 -82,-13 -83,-9 -83,-5 -83,-1 -83,4 -82,7 -82,11 -82,16 -81,19 -79,24 -78,27 -77,31 -75,35 -73,38 -72,43 -69,45 -66,49 -65,52 -61,55 -59,58 -55,61 -53,63 -49,66 -46,69 -42,70 -39,73 -35,74 -31,76 -27,77 -23,79 -20,80 -15,80 -12,81 -7,82 -3,82 1,82 5,82 10,81 13,81 17,80 22,79 25,78 30,77 33,75 37,73 40,72 44,69 48,67 51,65 54,62 57,60 60,56 63,54 65,50 68,47 70,44 72,40 75,37 76,33 77,29 79,26 80,21 81,17 82,14 83,9 82,6 83,1 5,606 -113,-2 -113,-7 -113,-13 -112,-19 -111,-23 -109,-30 -108,-34 -106,-40 -104,-45 -101,-51 -99,-55 -96,-59 -93,-65 -89,-69 -86,-73 -82,-77 -78,-82 -74,-85 -69,-88 -65,-92 -61,-95 -55,-98 -50,-100 -46,-103 -40,-105 -34,-106 -30,-109 -23,-109 -19,-111 -12,-111 -7,-112 -2,-112 4,-112 10,-111 16,-111 21,-111 26,-108 32,-108 38,-106 42,-104 48,-101 53,-99 58,-97 62,-93 68,-90 71,-87 76,-83 80,-80 84,-75 88,-71 91,-67 94,-62 98,-57 100,-53 103,-48 105,-42 106,-37 109,-32 110,-27 112,-21 112,-16 113,-10 113,-5 114,1 113,7 113,12 112,18 111,23 109,28 109,34 106,39 104,45 102,49 99,54 96,59 94,64 89,69 87,72 82,77 79,81 74,84 71,88 65,92 61,94 56,98 51,100 46,102 41,104 36,107 30,108 24,109 19,111 14,111 568,-53 -790,943 -955,-781 z"
             id="path2573"
             style="stroke:#009f9e;stroke-width:64.86071777;stroke-miterlimit:4;stroke-dasharray:none;stroke-opacity:1"
             inkscape:connector-curvature="0" />
        </g>
        <g
           id="g2575"
           style="fill:none;stroke:#009f9e;stroke-width:64.86071777;stroke-miterlimit:4;stroke-dasharray:none;stroke-opacity:1">
          <path
             d="m 18411,7164 -10,-81 -14,-81 -18,-80 -22,-79 -26,-78 -30,-76 -34,-75 -37,-73 -41,-71 -44,-70 -48,-66 -52,-65 -54,-62 -58,-59 -60,-56 -63,-53 -66,-50 -68,-47 -71,-43 -72,-40 -75,-36 -76,-32 -78,-29 -79,-25 -80,-21 -81,-16 -82,-13 -83,-9 -83,-5 -83,-1 -83,4 -82,7 -82,11 -82,16 -81,19 -79,24 -78,27 -77,31 -75,35 -73,38 -72,43 -69,45 -66,49 -65,52 -61,55 -59,58 -55,61 -53,63 -49,66 -46,69 -42,70 -39,73 -35,74 -31,76 -27,77 -23,79 -20,80 -15,80 -12,81 -7,82 -3,82 1,82 5,82 10,81 13,81 17,80 22,79 25,78 30,77 33,75 37,73 40,72 44,69 48,67 51,65 54,62 57,60 60,56 63,54 65,50 68,47 70,44 72,40 75,37 76,33 77,29 79,26 80,21 81,17 82,14 83,9 82,6 83,1 5,606 -113,-2 -113,-7 -113,-13 -112,-19 -111,-23 -109,-30 -108,-34 -106,-40 -104,-45 -101,-51 -99,-55 -96,-59 -93,-65 -89,-69 -86,-73 -82,-77 -78,-82 -74,-85 -69,-88 -65,-92 -61,-95 -55,-98 -50,-100 -46,-103 -40,-105 -34,-106 -30,-109 -23,-109 -19,-111 -12,-111 -7,-112 -2,-112 4,-112 10,-111 16,-111 21,-111 26,-108 32,-108 38,-106 42,-104 48,-101 53,-99 58,-97 62,-93 68,-90 71,-87 76,-83 80,-80 84,-75 88,-71 91,-67 94,-62 98,-57 100,-53 103,-48 105,-42 106,-37 109,-32 110,-27 112,-21 112,-16 113,-10 113,-5 114,1 113,7 113,12 112,18 111,23 109,28 109,34 106,39 104,45 102,49 99,54 96,59 94,64 89,69 87,72 82,77 79,81 74,84 71,88 65,92 61,94 56,98 51,100 46,102 41,104 36,107 30,108 24,109 19,111 14,111 568,-53 -790,943 -955,-781 568,-53"
             id="path2577"
             style="fill:none;stroke:#009f9e;stroke-width:64.86071777;stroke-miterlimit:4;stroke-dasharray:none;stroke-opacity:1"
             inkscape:connector-curvature="0" />
        </g>
        <g
           id="g2579"
           style="stroke:#009f9e;stroke-width:64.86071777;stroke-miterlimit:4;stroke-dasharray:none;stroke-opacity:1" />
      </g>
    </g>
    <g
       transform="matrix(0.035433,0,0,0.035433,-26.884938,-143.219)"
       id="g2581"
       style="visibility:visible;fill-rule:evenodd;stroke:#009f9e;stroke-width:64.86071777;stroke-miterlimit:4;stroke-dasharray:none;stroke-opacity:1">
      <desc
         id="desc2583">Drawing</desc>
      <g
         id="g2585"
         style="stroke:#009f9e;stroke-width:64.86071777;stroke-miterlimit:4;stroke-dasharray:none;stroke-opacity:1">
        <g
           id="g2587"
           style="fill:#99ccff;stroke:#009f9e;stroke-width:64.86071777;stroke-miterlimit:4;stroke-dasharray:none;stroke-opacity:1">
          <path
             d="m 14668,12787 h 3602 v 1039 h -3602 z"
             id="path2589"
             style="stroke:#009f9e;stroke-width:64.86071777;stroke-miterlimit:4;stroke-dasharray:none;stroke-opacity:1"
             inkscape:connector-curvature="0" />
        </g>
        <g
           id="g2591"
           style="fill:none;stroke:#009f9e;stroke-width:64.86071777;stroke-miterlimit:4;stroke-dasharray:none;stroke-opacity:1">
          <path
             d="m 16469,13826 h -1801 v -1039 h 3602 v 1039 h -1801"
             id="path2593"
             style="fill:none;stroke:#009f9e;stroke-width:64.86071777;stroke-miterlimit:4;stroke-dasharray:none;stroke-opacity:1"
             inkscape:connector-curvature="0" />
        </g>
        <g
           id="g2595"
           style="stroke:#009f9e;stroke-width:64.86071777;stroke-miterlimit:4;stroke-dasharray:none;stroke-opacity:1" />
      </g>
    </g>
    <g
       transform="matrix(0.035433,0,0,0.035433,-26.884938,-143.219)"
       id="g2597"
       style="visibility:visible;fill-rule:evenodd;stroke:#009f9e;stroke-width:64.86071777;stroke-miterlimit:4;stroke-dasharray:none;stroke-opacity:1">
      <desc
         id="desc2599">Drawing</desc>
      <g
         id="g2601"
         style="stroke:#009f9e;stroke-width:64.86071777;stroke-miterlimit:4;stroke-dasharray:none;stroke-opacity:1">
        <g
           id="g2603"
           style="fill:#99ccff;stroke:#009f9e;stroke-width:64.86071777;stroke-miterlimit:4;stroke-dasharray:none;stroke-opacity:1">
          <path
             d="m 19244,12850 h 2408 v -489 l 803,979 -803,979 v -490 h -2408 z"
             id="path2605"
             style="stroke:#009f9e;stroke-width:64.86071777;stroke-miterlimit:4;stroke-dasharray:none;stroke-opacity:1"
             inkscape:connector-curvature="0" />
        </g>
        <g
           id="g2607"
           style="fill:none;stroke:#009f9e;stroke-width:64.86071777;stroke-miterlimit:4;stroke-dasharray:none;stroke-opacity:1">
          <path
             d="m 19244,12850 h 2408 v -489 l 803,979 -803,979 v -490 h -2408 v -979"
             id="path2609"
             style="fill:none;stroke:#009f9e;stroke-width:64.86071777;stroke-miterlimit:4;stroke-dasharray:none;stroke-opacity:1"
             inkscape:connector-curvature="0" />
        </g>
        <g
           id="g2611"
           style="stroke:#009f9e;stroke-width:64.86071777;stroke-miterlimit:4;stroke-dasharray:none;stroke-opacity:1" />
      </g>
    </g>
    <g
       transform="matrix(0.035433,0,0,0.035433,-26.884938,-143.219)"
       id="g2613"
       style="visibility:visible;opacity:1;fill-rule:evenodd;stroke:#009f9e;stroke-width:64.86071777;stroke-miterlimit:4;stroke-dasharray:none;stroke-opacity:1">
      <desc
         id="desc2615">Drawing</desc>
      <g
         id="g2617"
         style="stroke:#009f9e;stroke-width:64.86071777;stroke-miterlimit:4;stroke-dasharray:none;stroke-opacity:1">
        <g
           id="g2619"
           style="fill:#99ccff;stroke:#009f9e;stroke-width:64.86071777;stroke-miterlimit:4;stroke-dasharray:none;stroke-opacity:1">
          <path
             d="m 17060,12032 -46,-73 -42,-75 -38,-77 -35,-79 -30,-80 -26,-82 -22,-83 -18,-84 -14,-85 -10,-85 -5,-86 -1,-86 4,-85 7,-86 12,-85 16,-84 21,-84 24,-82 29,-81 32,-79 37,-78 40,-76 45,-74 47,-72 52,-69 54,-66 58,-64 62,-61 64,-58 67,-54 69,-52 72,-47 75,-44 76,-41 78,-37 80,-32 82,-29 83,-25 84,-21 85,-16 86,-13 86,-8 87,-4 87,1 86,4 87,9 85,13 85,18 84,21 83,25 81,30 80,33 78,38 76,41 74,45 72,48 69,52 67,55 63,58 61,62 57,64 54,67 51,70 47,72 44,74 40,76 35,78 32,80 28,81 24,83 20,83 15,85 11,85 7,85 3,86 -2,86 -6,86 -10,85 -14,84 -19,84 -23,83 -27,82 -31,80 -35,78 -39,77 -42,75 -47,72 -50,70 -53,68 -57,65 -60,62 -63,59 -65,56 -69,52 -71,50 -73,45 -76,42 -78,38 -79,35 -81,30 -83,27 -83,22 -85,18 -86,14 -86,10 -86,6 -87,1 -9,1000 136,-2 137,-9 136,-16 134,-22 134,-28 132,-36 130,-41 128,-48 125,-54 123,-61 119,-66 116,-72 112,-77 108,-83 103,-88 100,-94 94,-97 89,-103 84,-106 79,-111 73,-114 68,-118 61,-121 55,-124 49,-126 43,-129 36,-130 29,-132 23,-134 16,-134 9,-135 3,-135 -4,-136 -11,-135 -18,-134 -24,-133 -31,-132 -38,-130 -44,-128 -50,-126 -57,-123 -62,-120 -69,-117 -74,-114 -80,-109 -86,-106 -90,-101 -96,-97 -100,-92 -105,-87 -109,-82 -113,-76 -116,-71 -120,-65 -123,-59 -126,-52 -128,-47 -131,-40 -132,-34 -134,-27 -135,-21 -136,-14 -137,-7 h -137 l -136,6 -136,13 -135,19 -135,26 -132,33 -131,39 -129,45 -126,52 -124,58 -120,64 -118,69 -113,76 -110,80 -105,86 -101,92 -97,96 -91,100 -86,105 -81,109 -76,113 -69,116 -64,120 -58,123 -51,125 -45,128 -39,130 -32,131 -25,133 -19,134 -12,135 -6,135 2,135 8,136 15,134 22,134 28,132 35,131 41,129 48,127 54,124 60,121 67,119 72,115 -577,374 1654,340 343,-1637 z"
             id="path2621"
             style="stroke:#009f9e;stroke-width:64.86071777;stroke-miterlimit:4;stroke-dasharray:none;stroke-opacity:1"
             inkscape:connector-curvature="0" />
        </g>
        <g
           id="g2623"
           style="fill:none;stroke:#009f9e;stroke-width:64.86071777;stroke-miterlimit:4;stroke-dasharray:none;stroke-opacity:1">
          <path
             d="m 17060,12032 -46,-73 -42,-75 -38,-77 -35,-79 -30,-80 -26,-82 -22,-83 -18,-84 -14,-85 -10,-85 -5,-86 -1,-86 4,-85 7,-86 12,-85 16,-84 21,-84 24,-82 29,-81 32,-79 37,-78 40,-76 45,-74 47,-72 52,-69 54,-66 58,-64 62,-61 64,-58 67,-54 69,-52 72,-47 75,-44 76,-41 78,-37 80,-32 82,-29 83,-25 84,-21 85,-16 86,-13 86,-8 87,-4 87,1 86,4 87,9 85,13 85,18 84,21 83,25 81,30 80,33 78,38 76,41 74,45 72,48 69,52 67,55 63,58 61,62 57,64 54,67 51,70 47,72 44,74 40,76 35,78 32,80 28,81 24,83 20,83 15,85 11,85 7,85 3,86 -2,86 -6,86 -10,85 -14,84 -19,84 -23,83 -27,82 -31,80 -35,78 -39,77 -42,75 -47,72 -50,70 -53,68 -57,65 -60,62 -63,59 -65,56 -69,52 -71,50 -73,45 -76,42 -78,38 -79,35 -81,30 -83,27 -83,22 -85,18 -86,14 -86,10 -86,6 -87,1 -9,1000 136,-2 137,-9 136,-16 134,-22 134,-28 132,-36 130,-41 128,-48 125,-54 123,-61 119,-66 116,-72 112,-77 108,-83 103,-88 100,-94 94,-97 89,-103 84,-106 79,-111 73,-114 68,-118 61,-121 55,-124 49,-126 43,-129 36,-130 29,-132 23,-134 16,-134 9,-135 3,-135 -4,-136 -11,-135 -18,-134 -24,-133 -31,-132 -38,-130 -44,-128 -50,-126 -57,-123 -62,-120 -69,-117 -74,-114 -80,-109 -86,-106 -90,-101 -96,-97 -100,-92 -105,-87 -109,-82 -113,-76 -116,-71 -120,-65 -123,-59 -126,-52 -128,-47 -131,-40 -132,-34 -134,-27 -135,-21 -136,-14 -137,-7 h -137 l -136,6 -136,13 -135,19 -135,26 -132,33 -131,39 -129,45 -126,52 -124,58 -120,64 -118,69 -113,76 -110,80 -105,86 -101,92 -97,96 -91,100 -86,105 -81,109 -76,113 -69,116 -64,120 -58,123 -51,125 -45,128 -39,130 -32,131 -25,133 -19,134 -12,135 -6,135 2,135 8,136 15,134 22,134 28,132 35,131 41,129 48,127 54,124 60,121 67,119 72,115 -577,374 1654,340 343,-1637 -576,374"
             id="path2625"
             style="fill:none;stroke:#009f9e;stroke-width:64.86071777;stroke-miterlimit:4;stroke-dasharray:none;stroke-opacity:1"
             inkscape:connector-curvature="0" />
        </g>
        <g
           id="g2627"
           style="stroke:#009f9e;stroke-width:64.86071777;stroke-miterlimit:4;stroke-dasharray:none;stroke-opacity:1" />
      </g>
    </g>
    <g
       transform="matrix(0.495352,0,0,0.347107,676.63284,135.07402)"
       id="g19681"
       style="fill-rule:evenodd">
      <path
         d="M 548.26779,703.58265 V 451.99333 H 262.1748 v 251.58932 z m 0.0347,-251.5176 22.52343,-90.2845 0.0516,206.42506 -22.63491,135.31956 m 22.6349,-341.82316 H 300.842 l -38.73759,89.87655 286.21012,0.48625"
         id="rect5071"
         style="fill:#ae8858;fill-opacity:1;fill-rule:evenodd;stroke:#ba925b;stroke-width:5;stroke-linecap:round;stroke-linejoin:round;stroke-miterlimit:4;stroke-opacity:1"
         inkscape:connector-curvature="0" />
      <path
         d="m 404.6702,453.93353 26.61996,-94.26878"
         id="path8967"
         style="fill:none;fill-opacity:1;fill-rule:evenodd;stroke:#9c7a4d;stroke-width:3;stroke-linecap:butt;stroke-linejoin:miter;stroke-miterlimit:4;stroke-dasharray:none;stroke-opacity:1"
         inkscape:connector-curvature="0" />
      <path
         d="m 265.68103,453.48544 279.08911,0.0834"
         id="path10907"
         style="fill:none;fill-opacity:1;fill-rule:evenodd;stroke:#9c7a4d;stroke-width:2;stroke-linecap:square;stroke-linejoin:bevel;stroke-miterlimit:4;stroke-dasharray:none;stroke-opacity:1"
         inkscape:connector-curvature="0" />
      <path
         d="m 381.35803,452.57073 -0.0859,30.93002 4.98317,-3.95217 4.98317,3.95215 4.89726,-3.78033 5.15499,3.69441 5.06909,-3.86624 4.81134,3.95216 5.06907,-3.86624 4.98317,3.86625 c 0,0 5.06909,-3.78034 5.06909,-3.78034 l 4.98317,3.95216 -0.0859,-31.10184 0.10142,-0.0155 18.00442,-93.30554 -34.75818,-0.0859 z"
         id="path15762"
         style="opacity:0.7;fill:#bc956c;fill-opacity:1;fill-rule:evenodd;stroke:none;stroke-width:1px;stroke-linecap:butt;stroke-linejoin:bevel;stroke-opacity:1"
         inkscape:connector-curvature="0" />
      <path
         d="m 545.53673,613.40253 c 0,-83.86311 0.13049,-74.94557 0.13049,-158.80867 -95.36432,0 -185.52756,10e-6 -280.89188,10e-6 0,83.8631 0,75.84036 0,159.70347 104.89964,-71.0815 180.19598,-68.21998 280.76139,-0.89481 z m 5.16713,-160.9361 c 7.50781,-30.09483 10.17235,-39.78949 17.68016,-69.88433 -8.6142,79.53235 -10.04656,190.20827 -17.54087,235.01194 m -4.73097,-168.17743 c 6.31987,-24.85899 10.07834,-39.44972 17.80272,-70.48231 -5.65503,3.95835 -15.82515,8.00921 -28.35642,11.85082 -12.53127,3.8416 -27.38174,7.68425 -42.52335,10.59528 -30.81117,5.89394 -43.00677,21.39289 -53.77164,27.37999 -8.71592,4.84754 -22.76883,6.93137 -30.08172,6.80152 -7.39064,0.0862 -15.92733,-6.32883 -22.09843,-10.07067 -8.60008,-5.21465 -3.4458,-16.04457 -33.92618,-23.73858 -12.00696,-3.03086 -23.67793,-6.72354 -33.57904,-10.7394 -9.90112,-4.01587 -18.02168,-8.39706 -22.8957,-12.93133 -9.63196,21.72186 -18.18329,42.22725 -30.45894,71.01423"
         id="path17740"
         style="opacity:0.05000012;fill:#ffffff;fill-opacity:1;fill-rule:evenodd;stroke:none;stroke-width:5;stroke-linecap:round;stroke-linejoin:round;stroke-miterlimit:4;stroke-opacity:1"
         inkscape:connector-curvature="0" />
    </g>
    <text
       x="581.5448"
       y="254.37865"
       id="text6003"
       xml:space="preserve"
       style="font-style:normal;font-weight:normal;font-size:22.62852478px;font-family:'Bitstream Vera Sans';fill:#000000;fill-opacity:1;fill-rule:evenodd;stroke:none;stroke-width:64.86071777;stroke-linecap:butt;stroke-linejoin:miter;stroke-miterlimit:4;stroke-dasharray:none;stroke-opacity:1"><tspan
         x="581.5448"
         y="254.37865"
         id="tspan6005">30 days</tspan></text>
    <text
       x="540.43896"
       y="120.32111"
       id="text6007"
       xml:space="preserve"
       style="font-style:normal;font-weight:normal;font-size:22.62852478px;font-family:'Bitstream Vera Sans';fill:#000000;fill-opacity:1;fill-rule:evenodd;stroke:none;stroke-width:64.86071777;stroke-linecap:butt;stroke-linejoin:miter;stroke-miterlimit:4;stroke-dasharray:none;stroke-opacity:1"><tspan
         x="540.43896"
         y="120.32111"
         id="tspan6009">24 h</tspan></text>
    <text
       x="876.82599"
       y="414.0491"
       id="text6087"
       xml:space="preserve"
       style="font-style:normal;font-weight:normal;font-size:19.79995728px;font-family:'Bitstream Vera Sans';fill:#000000;fill-opacity:1;fill-rule:evenodd;stroke:none;stroke-width:1px;stroke-linecap:butt;stroke-linejoin:miter;stroke-opacity:1"><tspan
         x="876.82599"
         y="438.79904"
         id="tspan6091"
         style="text-align:center;text-anchor:middle" /></text>
    <text
       x="876.82599"
       y="414.0491"
       xml:space="preserve"
       style="font-style:normal;font-weight:normal;font-size:19.79995728px;font-family:'Bitstream Vera Sans';fill:#000000;fill-opacity:1;fill-rule:evenodd;stroke:none;stroke-width:1px;stroke-linecap:butt;stroke-linejoin:miter;stroke-opacity:1"
       id="text98"><tspan
         x="876.82599"
         y="438.79904"
         style="text-align:center;text-anchor:middle"
         id="tspan100" /></text>
    <g
       transform="matrix(0.035433,0,0,0.035433,-30.884928,-143.219)"
       id="g7721"
       style="fill-rule:evenodd">
      <path
         d="m 10432.964,11564.302 v 3192.76 l 1890.071,-1197.285 v -2924.531 z"
         id="path7486"
         style="fill:url(#linearGradient7899);fill-opacity:1;stroke:#009f9e;stroke-width:64.86071777;stroke-linecap:round;stroke-linejoin:round;stroke-miterlimit:4;stroke-dasharray:none;stroke-opacity:1"
         inkscape:connector-curvature="0" />
      <path
         d="m 10998.243,11547.314 v 3192.76 l 1890.071,-1197.285 v -2924.531 z"
         id="path7488"
         style="fill:url(#linearGradient7901);fill-opacity:1;stroke:#009f9e;stroke-width:64.86071777;stroke-linecap:round;stroke-linejoin:round;stroke-miterlimit:4;stroke-dasharray:none;stroke-opacity:1"
         inkscape:connector-curvature="0" />
      <path
         d="m 11580.307,11535.815 v 3192.76 l 1890.071,-1197.285 v -2924.531 z"
         id="path7492"
         style="fill:url(#linearGradient7903);fill-opacity:1;stroke:#009f9e;stroke-width:64.86071777;stroke-linecap:round;stroke-linejoin:round;stroke-miterlimit:4;stroke-dasharray:none;stroke-opacity:1"
         inkscape:connector-curvature="0" />
      <path
         d="m 12139.11,11535.815 v 3192.76 l 1890.071,-1197.285 v -2924.531 z"
         id="path7496"
         style="fill:url(#linearGradient7905);fill-opacity:1;stroke:#009f9e;stroke-width:64.86071777;stroke-linecap:round;stroke-linejoin:round;stroke-miterlimit:4;stroke-dasharray:none;stroke-opacity:1"
         inkscape:connector-curvature="0" />
    </g>
    <text
       x="331.69461"
       y="424.45923"
       id="text7668"
       xml:space="preserve"
       style="font-style:normal;font-weight:normal;font-size:19.79995728px;font-family:'Bitstream Vera Sans';fill:#000000;fill-opacity:1;fill-rule:evenodd;stroke:none;stroke-width:1px;stroke-linecap:butt;stroke-linejoin:miter;stroke-opacity:1"><tspan
         x="331.69461"
         y="424.45923"
         id="tspan7670">Sprint Backlog</tspan></text>
    <text
       x="594.18457"
       y="424.42548"
       id="text7672"
       xml:space="preserve"
       style="font-style:normal;font-weight:normal;font-size:19.79995728px;font-family:'Bitstream Vera Sans';fill:#000000;fill-opacity:1;fill-rule:evenodd;stroke:none;stroke-width:1px;stroke-linecap:butt;stroke-linejoin:miter;stroke-opacity:1"><tspan
         x="594.18457"
         y="424.42548"
         id="tspan7674">Sprint</tspan></text>
    <text
       x="22.201441"
       y="423.65314"
       id="text7676"
       xml:space="preserve"
       style="font-style:normal;font-weight:normal;font-size:19.79995728px;font-family:'Bitstream Vera Sans';fill:#000000;fill-opacity:1;fill-rule:evenodd;stroke:none;stroke-width:1px;stroke-linecap:butt;stroke-linejoin:miter;stroke-opacity:1"><tspan
         x="22.201441"
         y="423.65314"
         id="tspan7678">Product Backlog</tspan></text>
    <g
       transform="matrix(0.035433,0,0,0.035433,21.114954,-143.219)"
       id="g7714"
       style="fill-rule:evenodd">
      <g
         transform="matrix(13.979967,0,0,9.7961512,10222.025,14480.354)"
         id="g7696">
        <path
           d="M -474.77779,9.5403628 V -58.36043 H -667.51034 V 9.5403628 Z m 0.0234,-67.8814358 15.17337,-24.366651 0.0347,55.711527 -15.24848,36.5210478 m 15.24848,-92.2537738 h -181.91509 l -26.09639,24.256553 192.81145,0.131231"
           id="path7698"
           style="fill:#b3b3b3;fill-opacity:1;fill-rule:evenodd;stroke:#009f9e;stroke-width:3.9188962;stroke-linecap:round;stroke-linejoin:round;stroke-miterlimit:4;stroke-dasharray:none;stroke-opacity:1"
           inkscape:connector-curvature="0" />
        <path
           d="m -473.90337,-71.835566 v -67.900814 h -192.73255 v 67.900814 z m 0.0234,-67.881454 15.17337,-24.36665 0.0348,55.71153 -15.24848,36.521054 m 15.24848,-92.253784 h -181.91509 l -26.09639,24.25655 192.81145,0.13123"
           id="path7708"
           style="fill:#b3b3b3;fill-opacity:1;fill-rule:evenodd;stroke:#009f9e;stroke-width:3.9188962;stroke-linecap:round;stroke-linejoin:round;stroke-miterlimit:4;stroke-dasharray:none;stroke-opacity:1"
           inkscape:connector-curvature="0" />
        <path
           d="m -473.38762,-154.17184 v -67.90081 h -192.73255 v 67.90081 z m 0.0234,-67.88145 15.17337,-24.36665 0.0347,55.71153 -15.24848,36.52105 m 15.24848,-92.25378 H -640.0712 l -26.09639,24.25655 192.81145,0.13123"
           id="path7710"
           style="fill:#b3b3b3;fill-opacity:1;fill-rule:evenodd;stroke:#009f9e;stroke-width:3.9188962;stroke-linecap:round;stroke-linejoin:round;stroke-miterlimit:4;stroke-dasharray:none;stroke-opacity:1"
           inkscape:connector-curvature="0" />
        <path
           d="m -415.37782,-239.82551 v -67.90081 h -192.73255 v 67.90081 z m 0.0234,-67.88145 15.17337,-24.36665 0.0347,55.71153 -15.24848,36.52105 m 15.24848,-92.25378 H -582.0614 l -26.09639,24.25655 192.81145,0.13123"
           id="path7712"
           style="fill:#cccccc;fill-opacity:1;fill-rule:evenodd;stroke:#009f9e;stroke-width:3.9188962;stroke-linecap:round;stroke-linejoin:round;stroke-miterlimit:4;stroke-dasharray:none;stroke-opacity:1"
           inkscape:connector-curvature="0" />
      </g>
    </g>
    <flowRoot
       xml:space="preserve"
       id="flowRoot90"
       style="font-style:normal;font-weight:normal;font-size:40px;line-height:1.25;font-family:sans-serif;letter-spacing:0px;word-spacing:0px;fill:#000000;fill-opacity:1;stroke:none"><flowRegion
         id="flowRegion92"><rect
           id="rect94"
           width="220.44917"
           height="72.104019"
           x="771.86761"
           y="385.3428" /></flowRegion><flowPara
         id="flowPara96" /></flowRoot>    <text
       xml:space="preserve"
       style="font-style:normal;font-weight:normal;font-size:40px;line-height:1.25;font-family:sans-serif;letter-spacing:0px;word-spacing:0px;fill:#000000;fill-opacity:1;stroke:none"
       x="785.67419"
       y="414.746"
       id="text110"><tspan
         sodipodi:role="line"
         id="tspan108"
         x="785.67419"
         y="450.13663" /></text>
    <text
       xml:space="preserve"
       style="font-style:normal;font-weight:normal;font-size:19.79995728px;line-height:1.25;font-family:sans-serif;letter-spacing:0px;word-spacing:0px;fill:#000000;fill-opacity:1;stroke:none"
       x="730.28662"
       y="424.30368"
       id="text114"><tspan
         sodipodi:role="line"
         id="tspan112"
         x="730.28662"
         y="424.30368">Working increment of software</tspan></text>
  </g>
</svg>
